<?xml version="1.0" standalone="no"?>
<!DOCTYPE svg PUBLIC "-//W3C//DTD SVG 1.1//EN" "http://www.w3.org/Graphics/SVG/1.1/DTD/svg11.dtd" >
<!--
2013-9-30: Created.
-->
<svg>
<metadata>
Created by iconfont
</metadata>
<defs>

<font id="iconfont" horiz-adv-x="1024" >
  <font-face
    font-family="iconfont"
    font-weight="500"
    font-stretch="normal"
    units-per-em="1024"
    ascent="896"
    descent="-128"
  />
    <missing-glyph />
    
    <glyph glyph-name="-mine" unicode="&#59082;" d="M189.95035191 781.06245227c2.23326294 0 4.44797121-0.02947093 6.66267842-0.05785065l-0.01528107 0.05785065C196.61303033 781.06245227 189.93616208 781.06245227 189.95035191 781.06245227zM930.77382928 789.09827093c0 21.86546131-9.5410336 42.5422496-26.17917441 56.72991253-16.63813973 14.18766292-38.55926933 20.34387307-60.15293974 16.89137387l-0.17246079-0.02728852-493.40386561-89.39712109c-36.28234454-5.8942432-62.59468481-36.81391787-62.59468479-73.59181543l0-547.40059522c-27.3667552 33.184592-68.7967392 54.3394688-115.16806399 54.3394688-82.40370986 0-149.20513813-66.80142827-149.20513814-149.20513814s66.80142827-149.20513813 149.20513814-149.20513812c82.40370986 0 149.20513813 66.80142827 149.20513814 149.20513812l0.01418983 0L322.32196687 490.35726187l574.39950613 109.40371199 0-448.7124c-27.35038187 33.9006336-69.22789228 55.59254185-116.17772693 55.59254188-82.40370986 0-149.20513813-66.80142827-149.20513813-149.20513814s66.80142827-149.20513813 149.20513813-149.20513812c82.40370986 0 149.20513813 66.80142827 149.20513813 149.20513812l1.02276052 0L930.7716458 789.09827093zM173.10373007-57.718988800000034c-63.49628587 0-115.15387413 51.65758827-115.15387415 115.15387411S109.60744416 172.58875948000002 173.10373007 172.58875948000002c63.49628587 0 115.15387413-51.65758827 115.15387413-115.15387417S236.60001596-57.718988800000034 173.10373007-57.718988800000034zM322.32305806 525.02087253L322.32305806 699.7022421300001c0 20.01532372 14.34484271 36.83684052 34.10911468 39.9979008l0.17355305 0.02728854L849.97684581 829.12018561c11.68042667 1.82284907 23.52567251-1.52704533 32.52421866-9.20156909 9.03784-7.70836052 14.222592-18.9412608 14.22259201-30.82034559L896.72365648 634.42458453 322.32305806 525.02087253zM780.54593062-57.718988800000034c-63.49628587 0-115.15387413 51.65758827-115.15387414 115.15387411S717.04964368 172.58875948000002 780.54593062 172.58875948000002c63.49628587 0 115.15387413-51.65758827 115.1538741-115.15387417S844.04221647-57.718988800000034 780.54593062-57.718988800000034z"  horiz-adv-x="1024" />

    
    <glyph glyph-name="-song-detial" unicode="&#58957;" d="M513.761 762.533c21.949 0 40.449-7.526 55.501-22.553 15.052-15.027 22.553-33.779 22.553-56.13 0-22.754-7.627-41.682-22.855-56.734-15.253-15.052-33.653-22.553-55.199-22.553-21.14299999 0-39.34099999 7.526-54.595 22.553-15.253 15.027-22.88 34.156-22.88000001 57.338 0 22.377 7.652 40.978 22.88000001 55.803 15.228 14.851 33.452 22.276 54.595 22.276zM513.761 461.797c21.949 0 40.449-7.527 55.501-22.555 15.052-15.025 22.553-33.753 22.553-56.13 0-22.753-7.627-41.682-22.855-56.734-15.253-15.028-33.653-22.552-55.199-22.552-21.14299999 0-39.341 7.524-54.595 22.552-15.253 15.028-22.88 34.156-22.88 57.34 0 22.374 7.652 40.977 22.88 55.801 15.22799999 14.85 33.452 22.27800001 54.595 22.278zM513.761 161.10900000000004c21.949 0 40.449-7.524 55.501-22.552 15.052-15.028 22.553-33.753 22.553-56.10400001 0-22.756-7.627-41.682-22.855-56.73599999-15.253-15.051-33.653-22.552-55.199-22.552-21.14299999 0-39.341 7.527-54.595 22.552-15.253 15.028-22.88 34.158-22.88 57.339 0 22.377 7.652 40.977 22.88 55.804 15.228 14.824 33.452 22.249 54.595 22.249z"  horiz-adv-x="1024" />

    
    <glyph glyph-name="-video" unicode="&#58908;" d="M409.32713098 538.04062527L663.46207419 390.67840897 409.32713098 242.01221575 409.32713098 538.04062527ZM407.92088071 597.8957385900001C402.16803994 601.23238669 395.66093777 601.9866481 389.6524144 600.63153369 387.81150598 601.05340869 385.91946006 601.32187527 383.96349429 601.32187527 369.95213071 601.32187527 358.58707363 589.9696021699999 358.58707363 575.9582385799999L358.58707363 204.8232951C358.58707363 190.81193152000003 369.95213071 179.44687526999996 383.96349429 179.44687526999996 386.11122119 179.44687526999996 388.15667637 179.79204564999998 390.15099402 180.30340924999996 396.35127853 178.64147717000003 403.17798315 179.37017064999998 409.17372175 182.87301113L715.10980137 361.85028368999997C724.26321006 367.20681821000005 727.07453315 372.18610748000003 727.47201685 387.48238613 727.86950137 402.77866479 727.65099402 412.51363641 716.59275543 418.91846603L407.92088071 597.8957385900001ZM524.67670435 14.229855929999985L499.10852256 14.229855929999985C187.8670451 16.33225680999999 140.7960231 116.49483443999998 140.7960231 392.00032214 140.7960231 659.58935925 199.60284131 753.9638432 499.10852256 753.9638432L524.67670435 753.9638432C824.18238641 753.9638432 882.98920462 659.58935925 882.98920462 392.00032214 882.98920462 116.49483443999998 835.91818179 16.33225680999999 524.67670435 14.229855929999985M499.10852256 805.875C165.82727256 805.875 90.11988641 689.81463071 90.11988641 392.05223337 90.11988641 94.27685925000003 148.3897731-35.57889917 500.62982935-37.82405776999997L523.15539755-37.82405776999997C875.39545462-35.57889917 933.66534131 94.27685925000003 933.66534131 392.05223337 933.66534131 689.81463071 857.95795435 805.875 524.67670435 805.875L499.10852256 805.875Z"  horiz-adv-x="1024" />

    
    <glyph glyph-name="-soundhound" unicode="&#59010;" d="M512 39.5c-46.3 0-91.2 9.1-133.5 27-40.8 17.3-77.5 42-109 73.5s-56.2 68.2-73.5 109.1c-17.9 42.3-27 87.3-27 133.6V489h48v-106.4c0-162.7 132.3-295.1 295-295.1s295 132.4 295 295.1V489h48v-106.4c0-46.3-9.1-91.3-27-133.6-17.3-40.9-42-77.6-73.5-109.1s-68.2-56.2-109-73.5c-42.3-17.8-87.2-26.9-133.5-26.9zM488 63.5h48V-128h-48zM512 167.10000000000002c-57.5 0-111.6 22.4-152.3 63.1-40.7 40.7-63.1 94.8-63.1 152.4V680.5c0 57.6 22.4 111.7 63.1 152.4S454.5 896 512 896c57.5 0 111.6-22.4 152.3-63.1 40.7-40.7 63.1-94.8 63.1-152.4v-297.9c0-57.6-22.4-111.7-63.1-152.4-40.7-40.6-94.8-63.1-152.3-63.1zM512 848c-92.3 0-167.4-75.1-167.4-167.5v-297.9c0-92.4 75.1-167.5 167.4-167.5s167.4 75.1 167.4 167.5V680.5C679.4 772.9 604.3 848 512 848z"  horiz-adv-x="1024" />

    
    <glyph glyph-name="-user" unicode="&#58909;" d="M595.332122 283.02338799999995c-167.752787 0-304.295753 136.398476-304.295753 304.151263S427.579335 891.470404 595.332122 891.470404s304.151263-136.398476 304.15126301-304.15126299S763.08490901 283.02338799999995 595.332122 283.02338799999995z m0 537.35797901c-128.596021 0-233.206717-104.610696-233.20671599-233.20671601S466.88059101 354.11242400000003 595.332122 354.11242400000003s233.062227 104.610696 233.062227 233.206717S723.928143 820.38136701 595.332122 820.38136701zM998.314484-119.95897400000001c-19.650628 0-35.544518 15.89389-35.544518 35.544518 0 202.574855-164.862989 367.437844-367.437844 367.437844-202.574855 0-367.437844-164.862989-367.437844-367.437844 0-19.650628-15.89389-35.544518-35.544518-35.544518-19.650628 0-35.544518 15.89389-35.544518 35.544518 0 241.731621 196.795259 438.52688 438.52688 438.52688S1033.859002 157.46165499000006 1033.859002-84.41445599999997c0-19.650628-15.89389-35.544518-35.544518-35.544518z"  horiz-adv-x="1228" />

    
    <glyph glyph-name="-single-cycle" unicode="&#58910;" d="M938.93872197 382.57600790000004c0-0.12945383 0-0.12945383 0 0 0-137.35051061-111.33029136-248.68080197-248.55134814-248.68080198H358.85612247c-137.2210568 0-248.55134815 111.33029136-248.55134816 248.55134816s111.33029136 248.55134815 248.55134816 248.55134814h401.04795655v-99.80890074l241.81974913 139.55122569-241.81974913 139.6806795v-95.7958321H357.56158419c-183.04771161 0-331.53125136-148.35408592-331.53125136-331.53125137 0-183.04771161 148.35408592-331.53125136 331.53125136-331.53125135h331.40179754c182.91825778 0 331.2723437 148.09517827 331.53125136 331.01343605h-81.55591112zM542.7 269.5V508h-10.1c-4.1-3.6-9-7.2-14.6-11-5.6-3.7-11.6-7.3-18-10.7-6.3-3.4-12.8-6.5-19.4-9.3-6.6-2.8-12.8-5-18.6-6.6v-27c5.2 1.3 10.5 3.1 16 5.4 5.5 2.3 10.7 4.7 15.6 7.3 4.9 2.6 9.4 5.2 13.3 7.9 4 2.7 7 5 9 7.1v-201.6h26.8z"  horiz-adv-x="1024" />

    
    <glyph glyph-name="-share" unicode="&#58980;" d="M881.813333 430.186667A46.186667 46.186667 0 0 1 835.52 384 323.52 323.52 0 1 0 512 707.52 46.293333 46.293333 0 0 1 512 800a416 416 0 1 1 416-416 46.186667 46.186667 0 0 1-46.186667 46.186667zM858.666667 800H672.96a46.293333 46.293333 0 0 1 0-92.48h97.386667L479.36 416.64a46.186667 46.186667 0 1 1 65.28-65.386667L835.52 642.133333v-97.28a46.293333 46.293333 0 0 1 92.48 0V730.666667A69.44 69.44 0 0 1 858.666667 800z"  horiz-adv-x="1024" />

    
    <glyph glyph-name="-yuncun" unicode="&#59005;" d="M664.32 363.09333332999995c71.25333333 48.96 118.29333333 131.41333333 118.29333333 225.70666667 0 151.68-121.38666667 273.06666667-270.50666666 273.06666667S241.49333333 740.48 241.49333333 588.8c0-93.97333333 46.72-176.10666667 117.65333334-225.17333333C236.69333333 318.72 148.26666667 201.60000000000002 148.26666667 62.613333330000046v-78.18666666c0-44.37333333 35.94666667-78.18666667 78.18666666-78.18666667h566.72c42.24 0 78.18666667 35.94666667 78.18666667 78.18666667v78.18666666c1.70666667 138.34666667-85.65333333 255.14666667-207.04 300.48zM309.76 588.8c0 112.96 90.77333333 204.8 202.24 204.8s202.24-91.84 202.24-204.8S623.46666667 384 512 384s-202.24 91.84-202.24 204.8z m493.33333333-604.48c0-4.58666667-5.44-9.92-9.92-9.92H226.45333333c-3.84 0-9.92 2.66666667-9.92 9.92v78.18666667C216.53333333 202.13333333000003 329.06666667 315.73333333000005 467.52 315.73333333000005h86.72c66.88 0 129.70666667-26.34666667 176.96-74.13333333 47.25333333-47.78666667 72.74666667-111.04 72-178.98666667v-78.29333333zM839.89333333 384.96c46.93333333 49.38666667 73.81333333 115.62666667 73.81333334 185.38666667 0 62.29333333-21.65333333 122.98666667-60.8 170.88-12.05333333 14.50666667-33.49333333 16.64-48.10666667 4.69333333-14.50666667-11.94666667-16.64-33.49333333-4.69333333-48.10666667 29.22666667-35.62666667 45.33333333-80.96 45.33333333-127.57333333 0-66.24-32.42666667-128.10666667-86.61333333-165.33333333-10.45333333-7.25333333-16.10666667-19.62666667-14.50666667-32.32 1.49333333-12.69333333 10.02666667-23.36 21.97333333-27.84 94.08-35.09333333 156.58666667-125.65333333 155.30666667-225.17333334-0.21333333-18.88 14.82666667-34.34666667 33.70666667-34.56h0.42666666c18.66666667 0 33.92 15.04 34.13333334 33.70666667 1.28 109.97333333-57.28 211.09333333-149.97333334 266.24zM257.70666667 344.96000000000004c11.94666667 4.48 20.37333333 15.25333333 21.97333333 27.84 1.6 12.69333333-4.05333333 25.17333333-14.50666667 32.32-54.18666667 37.22666667-86.50666667 99.09333333-86.50666666 165.33333333 0 46.61333333 16.10666667 91.94666667 45.22666666 127.57333334 11.94666667 14.61333333 9.81333333 36.05333333-4.8 48-14.50666667 12.05333333-36.05333333 9.81333333-48-4.8-39.25333333-47.78666667-60.69333333-108.48-60.69333333-170.77333334 0-69.76 26.88-136 73.70666667-185.38666666-92.8-55.25333333-151.25333333-156.37333333-149.97333334-266.13333334 0.32-18.77333333 15.46666667-33.70666667 34.13333334-33.70666666h0.42666666c18.88 0.21333333 33.92 15.78666667 33.70666667 34.56-1.28 99.52 61.22666667 189.97333333 155.30666667 225.17333333z"  horiz-adv-x="1024" />

    
    <glyph glyph-name="-download" unicode="&#58970;" d="M896.3 391.84c0-226.33-196.69-407.59-428.12-381.81-176.43 19.65-318.44 161.79-337.98 338.23-9.23 83.37 8.42 162.21 45.35 228.96 11.23 20.3-4.05 45.18-27.25 45.18-11.01 0-21.39-5.76-26.71-15.41-36.69-66.44-56.93-143.24-55.18-224.91C71.3 152.70000000000005 254.5-38.75 483.48-53.01999999999998c259.11-16.14 474.29 189.23 474.29 444.85 0 78.02-20.06 151.35-55.28 215.14-5.33 9.65-15.72 15.42-26.74 15.42h-0.07c-23.6 0-38.12-25.25-26.74-45.93 30.17-54.82 47.36-117.75 47.36-184.62zM707.73 526.04c-12.01 12.01-31.47 12.01-43.47 0L542.77 404.56V791.47c0 16.98-13.76 30.74-30.74 30.74-16.98 0-30.74-13.76-30.74-30.74v-386.91L359.81 526.04c-12.01 12.01-31.47 12.01-43.47 0s-12.01-31.47 0-43.47l173.95-173.94c0.37-0.37 0.81-0.63 1.2-0.98 1.11-1 2.22-2 3.47-2.83 0.88-0.59 1.83-1.01 2.76-1.5 0.85-0.45 1.65-0.97 2.54-1.34 1.1-0.46 2.25-0.73 3.38-1.05 0.79-0.23 1.55-0.54 2.36-0.7 1.99-0.4 4.01-0.61 6.03-0.61h0.02c2.02 0 4.04 0.21 6.03 0.61 0.82 0.16 1.57 0.47 2.36 0.7 1.14 0.32 2.28 0.59 3.38 1.05 0.89 0.37 1.69 0.89 2.54 1.34 0.93 0.49 1.88 0.91 2.76 1.5 1.24 0.83 2.36 1.83 3.47 2.83 0.39 0.35 0.82 0.61 1.2 0.98l173.95 173.94c11.99 12 11.99 31.46-0.01 43.47z"  horiz-adv-x="1024" />

    
    <glyph glyph-name="-next-song" unicode="&#58979;" d="M277.57-0.5l530.91 317.28v-357.61c0-12.55 10.18-22.73 22.73-22.73s22.73 10.18 22.73 22.73V807.83c0 12.55-10.18 22.73-22.73 22.73s-22.73-10.18-22.73-22.73v-357.6L277.57 767.5c-46.49 27.78-105.52-5.71-105.52-59.87v-648.27c0-54.15 59.04-87.64 105.52-59.86z m-60.05 708.14c0 8.61 3.95 14.21 7.27 17.37 4.65 4.45 10.91 7 17.14 7 4.25 0 8.39-1.18 12.33-3.54l542.39-324.13c10.67-6.38 11.82-16.69 11.82-20.84 0-4.14-1.15-14.46-11.82-20.84l-542.4-324.13c-3.94-2.35-8.08-3.54-12.33-3.54-11.74 0-24.4 9.32-24.4 24.38V707.64z"  horiz-adv-x="1024" />

    
    <glyph glyph-name="-prev-song" unicode="&#58981;" d="M748.43 767.5L217.52 450.22V807.83c0 12.55-10.18 22.73-22.73 22.73s-22.73-10.18-22.73-22.73v-848.65c0-12.55 10.18-22.73 22.73-22.73s22.73 10.18 22.73 22.73v357.6L748.43-0.5c46.49-27.78 105.52 5.71 105.52 59.87V707.63c0 54.16-59.04 87.65-105.52 59.87z m60.05-708.14c0-8.61-3.95-14.21-7.27-17.37-4.65-4.45-10.91-7-17.14-7-4.25 0-8.39 1.18-12.33 3.54L229.36 362.65999999999997c-10.67 6.38-11.82 16.69-11.82 20.84 0 4.14 1.15 14.46 11.82 20.84l542.39 324.13c3.94 2.35 8.08 3.54 12.33 3.54 11.74 0 24.4-9.32 24.4-24.38v-648.27z"  horiz-adv-x="1024" />

    
    <glyph glyph-name="-play-list" unicode="&#58982;" d="M959.33 316.11c0-12.35-10.01-22.37-22.37-22.37H87.03c-12.35 0-22.37 10.01-22.37 22.37 0 12.35 10.01 22.37 22.37 22.37h849.93c12.36-0.01 22.37-10.02 22.37-22.37zM959.33-11.940000000000055c0-12.35-10.01-22.37-22.37-22.37H87.03c-12.35 0-22.37 10.01-22.37 22.37 0 12.35 10.01 22.37 22.37 22.37h849.93c12.36 0 22.37-10.01 22.37-22.37zM959.33 659.06c0-12.35-10.01-22.37-22.37-22.37H504.54c-12.35 0-22.37 10.01-22.37 22.37 0 12.35 10.01 22.37 22.37 22.37h432.42c12.36 0 22.37-10.01 22.37-22.37zM339.2 675.47L122.91 800.35c-12.63 7.29-28.42-1.82-28.42-16.41v-249.75c0-14.59 15.79-23.7 28.42-16.41L339.2 642.65c12.63 7.3 12.63 25.53 0 32.82z"  horiz-adv-x="1024" />

    
    <glyph glyph-name="-stop" unicode="&#58983;" d="M512.1 830.73c-247 0-447.23-200.23-447.23-447.23S265.1-63.73000000000002 512.1-63.73000000000002 959.33 136.5 959.33 383.5 759.1 830.73 512.1 830.73z m0-876.57c-236.74 0-429.34 192.6-429.34 429.34S275.36 812.84 512.1 812.84s429.34-192.6 429.34-429.34-192.6-429.34-429.34-429.34zM432.17 204.61c-19.76 0-35.78 16.02-35.78 35.78V526.61c0 19.76 16.02 35.78 35.78 35.78s35.78-16.02 35.78-35.78v-286.23c0-19.75-16.02-35.77-35.78-35.77zM593.06 204.61c-19.76 0-35.78 16.02-35.78 35.78V526.61c0 19.76 16.02 35.78 35.78 35.78s35.78-16.02 35.78-35.78v-286.23c0-19.75-16.02-35.77-35.78-35.77z"  horiz-adv-x="1024" />

    
    <glyph glyph-name="-play" unicode="&#58984;" d="M512.28 831.56C265.1 831.56 64.73 631.1800000000001 64.73 384S265.1-63.559999999999945 512.28-63.559999999999945 959.84 136.82000000000005 959.84 384 759.46 831.56 512.28 831.56z m0-877.22C275.37-45.65999999999997 82.63 147.09000000000003 82.63 384S275.37 813.66 512.28 813.66 941.94 620.9100000000001 941.94 384 749.2-45.65999999999997 512.28-45.65999999999997zM665.19 405.86L443.65 539.95c-17.03 10.31-38.78-1.95-38.78-21.86v-268.17c0-19.9 21.75-32.17 38.78-21.86l221.54 134.09c16.43 9.93 16.43 33.77 0 43.71z"  horiz-adv-x="1024" />

    
    <glyph glyph-name="pl" unicode="&#58986;" d="M289.64 503.99c-17.59 0-31.85-14.26-31.85-31.85 0-17.59 14.26-31.85 31.85-31.85H735.6c17.59 0 31.85 14.26 31.85 31.85 0 17.59-14.26 31.85-31.86 31.85H289.64zM512 281.01H289.64c-17.59 0-31.85-14.26-31.85-31.85 0-17.59 14.26-31.85 31.85-31.85h270.55c17.59 0 31.85 14.26 31.85 31.85s-14.27 31.86-31.86 31.85H512zM926.29 384.22c-16.64 0-30.5-12.82-31.75-29.41-6.88-91.12-45.67-175.86-110.97-241.15C711.3 41.389999999999986 615.21 1.5900000000000318 513 1.5900000000000318c-0.34 0-0.67 0.01-1.01 0.01v-0.01l-20.05-0.02c2.13-0.12 4.18-0.22 6.21-0.3-2.33 0.09-4.66 0.19-6.98 0.32H182.51c-28 0 14.09 61.43 17.76 76.68 7.39 30.67 6.72 66.31-7.04 95a97.349 97.349 0 0 1-3.73 7.08c-1.6 2.75-2.81 4.99-4.58 7.57-1.05 1.88-2.17 3.37-3.29 5.31-32.48 56.07-51.13 121.08-51.24 190.39h-0.01c0 102.21 39.8 198.3 112.07 270.57 65.29 65.29 150.03 104.09 241.15 110.97 16.6 1.25 29.41 15.1 29.41 31.75 0 18.46-15.66 33.17-34.07 31.78C248.36 811.26 66.68 618.65 66.68 383.61c0.11-81.08 21.91-157.04 59.81-222.52 1.4-2.42 2.58-4.63 4.35-7.12 1.09-1.86 2.4-3.64 3.66-5.79 27.99-48.06-27.23-88.98-27.86-135.59-0.55-40.62 23.73-74.71 71.32-74.71H512v0.01l0.01-0.01c235.5-0.52 428.63 181.35 446.06 412.27 1.39 18.41-13.31 34.07-31.78 34.07zM501.13 1.1499999999999773c0.19-0.01 0.38-0.01 0.58-0.02-0.2 0.01-0.39 0.02-0.58 0.02z"  horiz-adv-x="1024" />

    
    <glyph glyph-name="jyyx" unicode="&#58987;" d="M634.07 797.55c-50.47 0-95-25.15-121.97-63.53-26.97 38.38-71.5 63.53-121.97 63.53H64.87V699.28c0-125.37 101.63-227.01 227.01-227.01 29.89 0 54.21-24.32 54.21-54.21v-121.95c0-14.97 12.14-27.11 27.11-27.11 14.97 0 27.11 12.14 27.11 27.11V418.06c0 59.88-48.54 108.42-108.42 108.42-95.28 0-172.79 77.52-172.79 172.79v44.06h271.05c52.21 0 94.68-42.39 94.85-94.56v-68.45c0-14.97 12.14-27.11 27.11-27.11 14.97 0 27.11 12.14 27.11 27.11v68.14h0.02c0 52.31 42.56 94.87 94.87 94.87h271.05v-44.06c0-95.28-77.52-172.79-172.79-172.79-59.88 0-108.42-48.54-108.42-108.42V269c-0.01-143.46-124.5-258.4-271.13-242.45-111.11 12.08-201.3 101.19-214.9 212.12-6.19 50.52 3.35 98.36 24.2 139.57 9.18 18.14-3.85 39.53-24.18 39.53-10.44 0-19.87-6.01-24.55-15.34C92 359.80999999999995 80.48 311.4 81.98 260.12 86.4 107.41999999999996 208.99-19.399999999999977 361.5-28.590000000000032c173.04-10.43 316.62 126.82 316.62 297.6V418.06c0 29.89 24.32 54.21 54.21 54.21 125.37 0 227.01 101.63 227.01 227.01V797.55H634.07z"  horiz-adv-x="1024" />

    
    <glyph glyph-name="-find" unicode="&#58897;" d="M903.3 298.70000000000005c0 158-123.4 287.6-278.8 297.7l-18.5 76c-3.2 13-1.1 26.4 5.9 37.8 6.9 11.4 17.9 19.4 30.9 22.6 26.8 6.5 53.9-10 60.4-36.8 5.4-22.2 27.7-35.8 50-30.4 22.2 5.4 35.8 27.8 30.4 50-17.3 71.1-89.2 114.9-160.3 97.6-34.5-8.4-63.6-29.7-82-60s-24-65.9-15.6-100.4l15.6-64C435.9 560.7 358 464.4 357.8 350.29999999999995c-0.1-13.1 1.5-26.3 4.6-39.1 10.2-41.8 36-77.2 72.8-99.5 25.6-15.6 54.3-23.6 83.5-23.6 12.8 0 25.6 1.5 38.4 4.6 41.8 10.2 77.2 36 99.5 72.8s29.1 80 18.9 121.8l-30 123.2c99.6-19 175.2-106.7 175.2-211.7 0-38.4-10.2-76.1-29.5-108.9 0-0.1-0.1-0.1-0.2-0.2-42.6-72.7-111-124.4-192.5-145.6-81.5-21.3-166.5-9.5-239.1 33.2-72.7 42.6-124.4 111-145.6 192.5-21.2 81.5-9.5 166.5 33.2 239.1 42 71.6 109.3 123 189.4 144.8 22 6 35.1 28.7 29.1 50.8-6 22-28.7 35.1-50.8 29.1-101.1-27.5-186-92.4-239.1-182.8-111.3-189.5-47.6-434 141.8-545.1 63.1-37 132.4-54.7 200.8-54.7 136.7 0 270 70.4 344.1 196.6 26.8 45.7 41 97.9 41 151.1zM440.5 350c0 75.4 51 138.9 120.3 158.2L595 367.70000000000005c4.9-20.3 1.7-41.4-9.2-59.3-10.9-17.9-28.1-30.4-48.4-35.4-20.4-4.9-41.4-1.7-59.3 9.2-17.9 10.9-30.4 28.1-35.4 48.4-1.5 6.3-2.3 12.7-2.2 19"  horiz-adv-x="1024" />

    
    <glyph glyph-name="like-red" unicode="&#58889;" d="M694.31 809.66c-65.02 0-121.99-17.21-172.66-61.45-5.41-4.73-13.33-4.73-18.74 0-50.67 44.24-107.64 61.45-172.66 61.45-101.98 0-266.04-111.99-266.04-322.05 0-214.22 247.26-424.76 441.54-528.62 4.11-2.2 8.95-2.2 13.06 0 194.28 103.86 441.54 314.4 441.54 528.62 0 210.06-164.06 322.05-266.04 322.05z"  horiz-adv-x="1024" />

    
    <glyph glyph-name="like-not" unicode="&#58901;" d="M694.19 810.5c-65.04 0-122.02-17.21-172.71-61.47-5.41-4.73-13.33-4.73-18.74 0-50.7 44.25-107.69 61.47-172.73 61.47C228 810.5 63.89 698.47 63.89 488.35c0-214.29 247.33-424.9 441.68-528.79 4.11-2.2 8.95-2.2 13.07 0 194.34 103.89 441.68 314.5 441.68 528.79C960.31 698.47 796.2 810.5 694.19 810.5zM512.1 19.860000000000014C319.5 128.08000000000004 119.91 316.28 119.91 488.34c0 177.2 134.7 266.13 210.1 266.13 56.22 0 98.12-14.7 135.87-47.65a70.23 70.23 0 0 1 46.22-17.36c16.96 0 33.38 6.16 46.21 17.35 37.75 32.96 79.66 47.66 135.88 47.66 75.41 0 210.1-88.93 210.1-266.13 0-172.07-199.61-360.28-392.19-468.48z"  horiz-adv-x="1024" />

    
    <glyph glyph-name="like-gray" unicode="&#58902;" d="M694.31 809.66c-65.02 0-121.99-17.21-172.66-61.45-5.41-4.73-13.33-4.73-18.74 0-50.67 44.24-107.64 61.45-172.66 61.45-101.98 0-266.04-111.99-266.04-322.05 0-214.22 247.26-424.76 441.54-528.62 4.11-2.2 8.95-2.2 13.06 0 194.28 103.86 441.54 314.4 441.54 528.62 0 210.06-164.06 322.05-266.04 322.05z"  horiz-adv-x="1024" />

    
    <glyph glyph-name="-suiji" unicode="&#58905;" d="M84.21 622.8399999999999h59.57c86.85 0 162.98-46.56 204.87-116 3.9-6.47 10.7-10.62 18.25-10.62 16.55 0 26.52 18.11 17.99 32.29-49.2 81.78-138.72 136.54-241.12 136.54H84.21c-11.65 0-21.1-9.45-21.1-21.1 0-11.66 9.45-21.11 21.1-21.11z m862.6-468.13L751.53 267.45000000000005c-18.06 10.43-40.64-2.61-40.64-23.47v-99.48h-9.42c-86.85 0-162.98 46.56-204.87 116-3.9 6.47-10.7 10.62-18.25 10.62-16.55 0-26.52-18.11-17.99-32.29 49.2-81.78 138.72-136.54 241.12-136.54h9.42v-83.8c0-20.86 22.58-33.9 40.64-23.47l195.27 112.74c18.06 10.45 18.06 36.52 0 46.95zM710.27 622.13v-97.17c0-20.86 22.58-33.9 40.64-23.47l195.27 112.74c18.07 10.43 18.07 36.5 0 46.93L750.91 773.91c-18.06 10.43-40.64-2.61-40.64-23.47v-86.27c-146.67-8.97-255.16-131.52-295.79-280.5-55.29-153.52-138.82-239.17-270.7-239.17H84.21c-11.65 0-21.1-9.45-21.1-21.1s9.45-21.1 21.1-21.1h59.57c155.4 0 270.7 126.62 312.91 281.37 52.84 146.72 131.59 231.25 253.58 238.46z"  horiz-adv-x="1024" />

    
    <glyph glyph-name="-lbxh" unicode="&#59083;" d="M938.61 325.55999999999995c-10.7 0-19.82-8.18-20.52-18.86C908.35 156 782.63 36.360000000000014 629.5 36.360000000000014H402.48c-156.61 0-290.18 121.55-296.09 278.05-6.22 164.53 125.82 300.36 288.99 300.36H533.1v0.01h165.04v-100.5c0-13.14 14.36-21.23 25.6-14.43L924 621c10.85 6.56 10.85 22.3 0 28.86L723.74 771.02c-11.24 6.8-25.6-1.29-25.6-14.43v-100.5H489.79v-0.01h-86.96c-185.3 0-341.42-151.64-337.9-336.91 3.41-179.59 150.05-324.13 330.46-324.13H629.5c175.07 0 318.35 136.11 329.78 308.29 0.8 11.99-8.65 22.23-20.67 22.23z"  horiz-adv-x="1024" />

    


  </font>
</defs>
</svg>
